<svg xmlns="http://www.w3.org/2000/svg" viewBox="0 0 100 100"><g id="Слой_2" data-name="Слой 2"><g id="Слой_1-2" data-name="Слой 1"><path d="M81,0H19A19,19,0,0,0,0,19V81a19,19,0,0,0,19,19H81a19,19,0,0,0,19-19V19A19,19,0,0,0,81,0Zm4.32,66.4a19,19,0,0,1-19,19H33.6a19,19,0,0,1-19-19V33.6a19,19,0,0,1,19-19H66.4a19,19,0,0,1,19,19Z"/><rect x="23.6" y="44.97" width="28.4" height="10.06" rx="5.03"/><rect x="23.6" y="26.22" width="52.8" height="10.06" rx="5.03"/><rect x="23.6" y="63.22" width="52.4" height="10.06" rx="5.03"/><rect x="57.24" y="44.97" width="18.76" height="10.06" rx="5.03"/></g></g></svg>