<svg xmlns="http://www.w3.org/2000/svg" viewBox="0 0 104.77 98"><g id="Слой_2" data-name="Слой 2"><g id="Слой_1-2" data-name="Слой 1"><path d="M102,42,56.45,1.42a6.53,6.53,0,0,0-8.13,0L2.75,42C.2,44.55-1.07,47.09,1.13,50.44c.61,1.11,2.9,1.74,4.16,1.74h.57a3.26,3.26,0,0,1,3.25,3.25v32.5A10.07,10.07,0,0,0,19.18,98H30.32a4.24,4.24,0,0,0,4.24-4.24V65.48a5.66,5.66,0,0,1,5.67-5.66H64.54a5.66,5.66,0,0,1,5.66,5.66V93.76A4.24,4.24,0,0,0,74.44,98H85.58A10.07,10.07,0,0,0,95.66,87.93V55.43a3.25,3.25,0,0,1,3.25-3.25h.56c1.27,0,3.56-.63,4.17-1.74C105.84,47.09,104.56,44.55,102,42Z"/></g></g></svg>