<svg xmlns="http://www.w3.org/2000/svg" viewBox="0 0 82 95"><g id="Слой_2" data-name="Слой 2"><g id="Слой_1-2" data-name="Слой 1"><path d="M69.26,45H67.5V26.5a26.5,26.5,0,0,0-53,0V45H12.74A12.74,12.74,0,0,0,0,57.74V82.26A12.74,12.74,0,0,0,12.74,95H69.26A12.74,12.74,0,0,0,82,82.26V57.74A12.74,12.74,0,0,0,69.26,45ZM47,79.11A3.89,3.89,0,0,1,43.11,83H38.89A3.89,3.89,0,0,1,35,79.11V62.89A3.89,3.89,0,0,1,38.89,59h4.22A3.89,3.89,0,0,1,47,62.89ZM24,45V29c0-10.31,6.89-18.41,17.21-18.41h0C51.29,10.59,58,18.91,58,29V45Z"/></g></g></svg>