<svg xmlns="http://www.w3.org/2000/svg" viewBox="0 0 104.57 83.58"><g id="Слой_2" data-name="Слой 2"><g id="Слой_1-2" data-name="Слой 1"><circle cx="44.3" cy="21.73" r="21.73"/><path d="M65.23,47.17a5.65,5.65,0,0,0-4,0c-6,2.95-15.36,4-17,3.93-1.58.11-11-1-16.94-3.93a5.65,5.65,0,0,0-4,0C-1.56,59-2.56,83.58,2.32,83.58H86.27C91.15,83.58,90.15,59,65.23,47.17Z"/><path d="M98.16,29.2H85.35c-2.54,0,3.2-7.48,3.2-7.48,2.14-4.27-2-8.73-5.34-5.34,0,0-12.71,13.74-12.71,18.8S83.21,54,83.21,54c3.39,3.39,7.48-1.07,5.34-5.34,0,0-5.74-7.48-3.2-7.48H98.16c1.43,0,3.2,0,4.27-1.06a7.61,7.61,0,0,0,2.14-4.93,7.59,7.59,0,0,0-2.14-4.92C101.36,29.2,99.59,29.2,98.16,29.2Z"/></g></g></svg>