<svg xmlns="http://www.w3.org/2000/svg" viewBox="0 0 100 100"><defs><style>.cls-1{fill:#fff;}</style></defs><g id="Слой_2" data-name="Слой 2"><g id="Слой_1-2" data-name="Слой 1"><rect class="cls-1" x="11" y="10" width="79" height="79"/><path d="M81,0H19A19,19,0,0,0,0,19V81a19,19,0,0,0,19,19H81a19,19,0,0,0,19-19V19A19,19,0,0,0,81,0Zm4.32,66.4a19,19,0,0,1-19,19H33.6a19,19,0,0,1-19-19V33.6a19,19,0,0,1,19-19H66.4a19,19,0,0,1,19,19Z"/><rect x="23.6" y="64.97" width="52.8" height="10.06" rx="5.03"/><rect x="55.81" y="44.97" width="20.38" height="10.06" rx="5.03"/><rect x="23.6" y="23.9" width="52.8" height="10.06" rx="5.03"/><rect x="24.1" y="44.97" width="20.38" height="10.06" rx="5.03"/></g></g></svg>