<svg xmlns="http://www.w3.org/2000/svg" viewBox="0 0 116.25 85.46"><g id="Слой_2" data-name="Слой 2"><g id="Слой_1-2" data-name="Слой 1"><circle cx="45.3" cy="22.22" r="22.22"/><path d="M88.22,85.46c5,0,4-25.15-21.52-37.23a5.84,5.84,0,0,0-4.08,0c-6.11,3-15.71,4.14-17.33,4-1.61.11-11.21-1-17.32-4a5.84,5.84,0,0,0-4.08,0C-1.59,60.31-2.61,85.46,2.37,85.46"/><circle cx="86.36" cy="35.65" r="14.83"/><path d="M114.59,80.92c3.33,0,3-20.94-14-29-.48-.23-3.09.7-4,1-3,1-10,1-10,1-3,1-.67,4.16,0,5,4,5,8,13,9,20,.07.48,1,2,2,2"/></g></g></svg>